<svg xmlns="http://www.w3.org/2000/svg" width="340" height="400" viewBox="0 0 340 400" font-family="'Helvetica Neue', Arial, sans-serif">
  <!-- module PCB -->
  <rect x="8" y="8" width="324" height="384" rx="16" fill="#e6e8ea" stroke="#b7bcc2" stroke-width="2"/>
  <circle cx="26" cy="26" r="5" fill="#fff" stroke="#b7bcc2"/>
  <circle cx="314" cy="26" r="5" fill="#fff" stroke="#b7bcc2"/>
  <circle cx="26" cy="374" r="5" fill="#fff" stroke="#b7bcc2"/>
  <circle cx="314" cy="374" r="5" fill="#fff" stroke="#b7bcc2"/>

  <!-- active area -->
  <rect x="42" y="44" width="256" height="256" fill="#fbfbf9" stroke="#3a3a3a" stroke-width="2"/>

  <!-- weather icon, aligned with the temperature row -->
  <g transform="translate(19.1,-72) scale(0.8)">
    <g fill="none" stroke="#141414" stroke-width="6.5" stroke-linejoin="round" stroke-linecap="round">
      <path d="M92 210 a17 17 0 0 1 2 -33.6 a24 24 0 0 1 45 -4.6 a15 15 0 0 1 2 38.2 z"/>
      <line x1="100" y1="218" x2="95" y2="232"/>
      <line x1="140" y1="218" x2="135" y2="232"/>
    </g>
    <path d="M124 212 L110 234 L120 234 L112 252 L136 228 L124 228 L131 212 Z" fill="#141414"/>
  </g>

<polygon points="81.5,204.5 86.0,209.0 86.0,237.5 81.5,242.0 77.0,237.5 77.0,209.0" fill="#141414"/>
<polygon points="81.5,242.0 86.0,246.5 86.0,275.0 81.5,279.5 77.0,275.0 77.0,246.5" fill="#141414"/>
<polygon points="135.5,204.5 140.0,209.0 140.0,237.5 135.5,242.0 131.0,237.5 131.0,209.0" fill="#141414"/>
<polygon points="135.5,242.0 140.0,246.5 140.0,275.0 135.5,279.5 131.0,275.0 131.0,246.5" fill="#141414"/>
<polygon points="102.5,204.5 107.0,209.0 107.0,237.5 102.5,242.0 98.0,237.5 98.0,209.0" fill="#141414"/>
<polygon points="102.5,242.0 107.0,237.5 131.0,237.5 135.5,242.0 131.0,246.5 107.0,246.5" fill="#141414"/>
<circle cx="160.0" cy="226.88" r="5.58" fill="#141414"/>
<circle cx="160.0" cy="257.12" r="5.58" fill="#141414"/>
<polygon points="184.5,204.5 189.0,200.0 213.0,200.0 217.5,204.5 213.0,209.0 189.0,209.0" fill="#141414"/>
<polygon points="217.5,204.5 222.0,209.0 222.0,237.5 217.5,242.0 213.0,237.5 213.0,209.0" fill="#141414"/>
<polygon points="217.5,242.0 222.0,246.5 222.0,275.0 217.5,279.5 213.0,275.0 213.0,246.5" fill="#141414"/>
<polygon points="184.5,279.5 189.0,275.0 213.0,275.0 217.5,279.5 213.0,284.0 189.0,284.0" fill="#141414"/>
<polygon points="184.5,242.0 189.0,237.5 213.0,237.5 217.5,242.0 213.0,246.5 189.0,246.5" fill="#141414"/>
<polygon points="238.5,204.5 243.0,200.0 267.0,200.0 271.5,204.5 267.0,209.0 243.0,209.0" fill="#141414"/>
<polygon points="271.5,204.5 276.0,209.0 276.0,237.5 271.5,242.0 267.0,237.5 267.0,209.0" fill="#141414"/>
<polygon points="271.5,242.0 276.0,246.5 276.0,275.0 271.5,279.5 267.0,275.0 267.0,246.5" fill="#141414"/>
<polygon points="171.85000000000002,66.25 175.10000000000002,69.5 175.10000000000002,83.75 171.85000000000002,87.0 168.60000000000002,83.75 168.60000000000002,69.5" fill="#141414"/>
<polygon points="171.85000000000002,87.0 175.10000000000002,90.25 175.10000000000002,104.5 171.85000000000002,107.75 168.60000000000002,104.5 168.60000000000002,90.25" fill="#141414"/>
<polygon points="187.35000000000002,66.25 190.60000000000002,63.0 203.60000000000002,63.0 206.85000000000002,66.25 203.60000000000002,69.5 190.60000000000002,69.5" fill="#141414"/>
<polygon points="206.85000000000002,66.25 210.10000000000002,69.5 210.10000000000002,83.75 206.85000000000002,87.0 203.60000000000002,83.75 203.60000000000002,69.5" fill="#141414"/>
<polygon points="206.85000000000002,87.0 210.10000000000002,90.25 210.10000000000002,104.5 206.85000000000002,107.75 203.60000000000002,104.5 203.60000000000002,90.25" fill="#141414"/>
<polygon points="187.35000000000002,107.75 190.60000000000002,104.5 203.60000000000002,104.5 206.85000000000002,107.75 203.60000000000002,111.0 190.60000000000002,111.0" fill="#141414"/>
<polygon points="187.35000000000002,87.0 190.60000000000002,90.25 190.60000000000002,104.5 187.35000000000002,107.75 184.10000000000002,104.5 184.10000000000002,90.25" fill="#141414"/>
<polygon points="187.35000000000002,66.25 190.60000000000002,69.5 190.60000000000002,83.75 187.35000000000002,87.0 184.10000000000002,83.75 184.10000000000002,69.5" fill="#141414"/>
<polygon points="187.35000000000002,87.0 190.60000000000002,83.75 203.60000000000002,83.75 206.85000000000002,87.0 203.60000000000002,90.25 190.60000000000002,90.25" fill="#141414"/>
<circle cx="226.10000000000002" cy="70" r="6" fill="none" stroke="#141414" stroke-width="3.4"/>
<polygon points="245.35000000000002,66.25 248.60000000000002,63.0 261.6,63.0 264.85,66.25 261.6,69.5 248.60000000000002,69.5" fill="#141414"/>
<polygon points="245.35000000000002,107.75 248.60000000000002,104.5 261.6,104.5 264.85,107.75 261.6,111.0 248.60000000000002,111.0" fill="#141414"/>
<polygon points="245.35000000000002,87.0 248.60000000000002,90.25 248.60000000000002,104.5 245.35000000000002,107.75 242.10000000000002,104.5 242.10000000000002,90.25" fill="#141414"/>
<polygon points="245.35000000000002,66.25 248.60000000000002,69.5 248.60000000000002,83.75 245.35000000000002,87.0 242.10000000000002,83.75 242.10000000000002,69.5" fill="#141414"/>

  <!-- date, filling the middle band -->
  <text x="170" y="170" text-anchor="middle" font-size="21" font-weight="600" letter-spacing="3" fill="#2a2a2a">QUA 22/07</text>

  <!-- FPC connector tab -->
  <rect x="120" y="300" width="100" height="14" fill="#d6b24a" stroke="#b7902f"/>

  <!-- caption -->
  <text x="170" y="352" text-anchor="middle" font-size="17" fill="#5a5f66">1.54" e-Paper &#183; 200&#215;200 &#183; SSD1681</text>
</svg>
