<svg xmlns="http://www.w3.org/2000/svg" width="340" height="400" viewBox="0 0 340 400" font-family="Arial, sans-serif">
  <rect x="8" y="8" width="324" height="384" rx="16" fill="#e6e8ea" stroke="#b7bcc2" stroke-width="2"/>
  <circle cx="26" cy="26" r="5" fill="#fff" stroke="#b7bcc2"/>
  <circle cx="314" cy="26" r="5" fill="#fff" stroke="#b7bcc2"/>
  <circle cx="26" cy="374" r="5" fill="#fff" stroke="#b7bcc2"/>
  <circle cx="314" cy="374" r="5" fill="#fff" stroke="#b7bcc2"/>
  <rect x="42" y="44" width="256" height="256" fill="#fbfbf9" stroke="#3a3a3a" stroke-width="2"/>
  <g transform="translate(31.0,-54) scale(0.72)">
    <g fill="none" stroke="#000000" stroke-width="6.8" stroke-linejoin="round" stroke-linecap="round">
      <path d="M92 210 a17 17 0 0 1 2 -33.6 a24 24 0 0 1 45 -4.6 a15 15 0 0 1 2 38.2 z"/>
      <line x1="100" y1="218" x2="95" y2="232"/>
      <line x1="140" y1="218" x2="135" y2="232"/>
    </g>
    <path d="M124 212 L110 234 L120 234 L112 252 L136 228 L124 228 L131 212 Z" fill="#000000"/>
  </g>
<g fill="#000000">
<path transform="translate(157.00,114) scale(0.06600,-0.06600)" d="M195 534H80V612Q127 612 155.5 620.0Q184 628 201.0 646.5Q218 665 231 700H305V0H195Z"/>
<path transform="translate(183.40,114) scale(0.06600,-0.06600)" d="M28 163V225Q28 277 45.0 312.5Q62 348 100 368V370Q65 389 48.5 422.5Q32 456 32 508V537Q32 621 75.5 665.5Q119 710 200 710Q281 710 324.5 665.5Q368 621 368 537V508Q368 408 300 370V368Q338 348 355.0 312.5Q372 277 372 225V163Q372 79 327.5 34.5Q283 -10 200 -10Q117 -10 72.5 34.5Q28 79 28 163ZM258 485V540Q258 610 200 610Q142 610 142 540V485Q142 415 200 415Q258 415 258 485ZM262 169V236Q262 315 200 315Q138 315 138 236V169Q138 90 200 90Q262 90 262 169Z"/>
</g>
<circle cx="223.7" cy="73.1" r="7.3" fill="none" stroke="#000000" stroke-width="4.6"/>
<g fill="#000000">
<path transform="translate(236.20,114) scale(0.06600,-0.06600)" d="M34 162V538Q34 620 75.5 665.0Q117 710 196 710Q275 710 316.5 665.0Q358 620 358 538V464H254V545Q254 610 199 610Q144 610 144 545V154Q144 90 199 90Q254 90 254 154V261H358V162Q358 80 316.5 35.0Q275 -10 196 -10Q117 -10 75.5 35.0Q34 80 34 162Z"/>
</g>
<g fill="#000000">
<path transform="translate(106.37,171) scale(0.03200,-0.03200)" d="M273 2Q242 -10 200 -10Q119 -10 76.0 36.0Q33 82 33 166V534Q33 618 76.0 664.0Q119 710 200 710Q281 710 324.0 664.0Q367 618 367 534V166Q367 96 336 51Q342 41 351.0 38.0Q360 35 377 35H394V-65H365Q290 -65 273 2ZM257 159V541Q257 610 200 610Q143 610 143 541V159Q143 90 200 90Q257 90 257 159Z"/>
<path transform="translate(121.67,171) scale(0.03200,-0.03200)" d="M37 166V700H147V158Q147 122 161.5 106.0Q176 90 203 90Q230 90 244.5 106.0Q259 122 259 158V700H365V166Q365 81 323.0 35.5Q281 -10 201 -10Q121 -10 79.0 35.5Q37 81 37 166Z"/>
<path transform="translate(137.03,171) scale(0.03200,-0.03200)" d="M126 700H275L389 0H279L259 139V137H134L114 0H12ZM246 232 197 578H195L147 232Z"/>
<path transform="translate(159.98,171) scale(0.03200,-0.03200)" d="M39 76Q39 151 63.0 204.5Q87 258 149 323Q210 388 233.5 434.0Q257 480 257 530Q257 575 242.5 592.5Q228 610 200 610Q143 610 143 541V466H39V534Q39 619 81.0 664.5Q123 710 203 710Q283 710 325.0 664.5Q367 619 367 534Q367 470 336.5 409.0Q306 348 231 269Q182 217 165.0 184.5Q148 152 148 115V100H357V0H39Z"/>
<path transform="translate(175.28,171) scale(0.03200,-0.03200)" d="M39 76Q39 151 63.0 204.5Q87 258 149 323Q210 388 233.5 434.0Q257 480 257 530Q257 575 242.5 592.5Q228 610 200 610Q143 610 143 541V466H39V534Q39 619 81.0 664.5Q123 710 203 710Q283 710 325.0 664.5Q367 619 367 534Q367 470 336.5 409.0Q306 348 231 269Q182 217 165.0 184.5Q148 152 148 115V100H357V0H39Z"/>
<path transform="translate(190.58,171) scale(0.03200,-0.03200)" d="M285 700H380L104 0H9Z"/>
<path transform="translate(205.53,171) scale(0.03200,-0.03200)" d="M33 166V534Q33 618 76.0 664.0Q119 710 200 710Q281 710 324.0 664.0Q367 618 367 534V166Q367 82 324.0 36.0Q281 -10 200 -10Q119 -10 76.0 36.0Q33 82 33 166ZM257 159V541Q257 610 200 610Q143 610 143 541V159Q143 90 200 90Q257 90 257 159Z"/>
<path transform="translate(220.83,171) scale(0.03200,-0.03200)" d="M256 600H34V700H364V604L192 0H80Z"/>
</g>
<g fill="#000000">
<path transform="translate(52.00,288) scale(0.13199,-0.13199)" d="M195 534H80V612Q127 612 155.5 620.0Q184 628 201.0 646.5Q218 665 231 700H305V0H195Z"/>
<path transform="translate(104.80,288) scale(0.13199,-0.13199)" d="M225 127H15V227L215 700H335V227H387V127H335V0H225ZM225 227V500H223L115 227Z"/>
<path transform="translate(157.59,288) scale(0.13199,-0.13199)" d="M41 487H147V381H41ZM41 106H147V0H41Z"/>
<path transform="translate(182.41,288) scale(0.13199,-0.13199)" d="M33 164V221H137V159Q137 90 194 90Q222 90 236.5 107.5Q251 125 251 169V226Q251 274 234.0 294.5Q217 315 179 315H142V415H182Q215 415 231.5 432.0Q248 449 248 489V540Q248 576 233.0 593.0Q218 610 193 610Q140 610 140 545V499H36V536Q36 620 77.5 665.0Q119 710 197 710Q276 710 317.0 665.5Q358 621 358 537V512Q358 455 339.0 420.5Q320 386 280 371V369Q323 353 342.0 317.0Q361 281 361 225V163Q361 79 319.5 34.5Q278 -10 197 -10Q116 -10 74.5 35.0Q33 80 33 164Z"/>
<path transform="translate(235.20,288) scale(0.13199,-0.13199)" d="M256 600H34V700H364V604L192 0H80Z"/>
</g>
  <rect x="120" y="300" width="100" height="14" fill="#d6b24a" stroke="#b7902f"/>
  <text x="170" y="352" text-anchor="middle" font-size="17" fill="#5a5f66">1.54" e-Paper &#183; 200&#215;200 &#183; SSD1681</text>
</svg>
